<?xml version="1.0" encoding="UTF-8" standalone="no"?>
<!-- Created with Inkscape (http://www.inkscape.org/) -->

<svg
   xmlns:osb="http://www.openswatchbook.org/uri/2009/osb"
   xmlns:dc="http://purl.org/dc/elements/1.1/"
   xmlns:cc="http://creativecommons.org/ns#"
   xmlns:rdf="http://www.w3.org/1999/02/22-rdf-syntax-ns#"
   xmlns:svg="http://www.w3.org/2000/svg"
   xmlns="http://www.w3.org/2000/svg"
   xmlns:xlink="http://www.w3.org/1999/xlink"
   xmlns:sodipodi="http://sodipodi.sourceforge.net/DTD/sodipodi-0.dtd"
   xmlns:inkscape="http://www.inkscape.org/namespaces/inkscape"
   width="744.09448819"
   height="1052.3622047"
   id="svg2"
   version="1.1"
   inkscape:version="0.48.2 r9819"
   sodipodi:docname="back_button.svg"
   inkscape:export-filename="D:\Development\eclipse_dev\dragondraw\outside resources\back_button.png"
   inkscape:export-xdpi="90"
   inkscape:export-ydpi="90">
  <defs
     id="defs4">
    <linearGradient
       id="linearGradient5229">
      <stop
         style="stop-color:#ecb643;stop-opacity:1;"
         offset="0"
         id="stop5231" />
      <stop
         style="stop-color:#ffd24c;stop-opacity:0;"
         offset="1"
         id="stop5233" />
    </linearGradient>
    <linearGradient
       id="linearGradient5223"
       osb:paint="solid">
      <stop
         style="stop-color:#ffd34c;stop-opacity:1;"
         offset="0"
         id="stop5225" />
    </linearGradient>
    <linearGradient
       id="linearGradient5217"
       osb:paint="solid">
      <stop
         style="stop-color:#ffd24c;stop-opacity:1;"
         offset="0"
         id="stop5219" />
    </linearGradient>
    <linearGradient
       id="linearGradient5207"
       osb:paint="gradient">
      <stop
         style="stop-color:#ffd24c;stop-opacity:1;"
         offset="0"
         id="stop5209" />
      <stop
         style="stop-color:#ffd24c;stop-opacity:0;"
         offset="1"
         id="stop5211" />
    </linearGradient>
    <linearGradient
       id="linearGradient5201"
       osb:paint="solid">
      <stop
         style="stop-color:#ffd24c;stop-opacity:1;"
         offset="0"
         id="stop5203" />
    </linearGradient>
    <radialGradient
       inkscape:collect="always"
       xlink:href="#linearGradient5229"
       id="radialGradient5237"
       cx="197.14285"
       cy="358.07648"
       fx="197.14285"
       fy="358.07648"
       r="97.64286"
       gradientTransform="matrix(1.9540435,0.03694469,-0.02090532,1.1057035,-180.59714,-45.133312)"
       gradientUnits="userSpaceOnUse" />
    <filter
       inkscape:collect="always"
       id="filter5567">
      <feGaussianBlur
         inkscape:collect="always"
         stdDeviation="0.80000002"
         id="feGaussianBlur5569" />
    </filter>
  </defs>
  <sodipodi:namedview
     id="base"
     pagecolor="#ffffff"
     bordercolor="#666666"
     borderopacity="1.0"
     inkscape:pageopacity="0.0"
     inkscape:pageshadow="2"
     inkscape:zoom="4.0729351"
     inkscape:cx="230.42477"
     inkscape:cy="676.23584"
     inkscape:document-units="px"
     inkscape:current-layer="layer1"
     showgrid="false"
     inkscape:window-width="1559"
     inkscape:window-height="953"
     inkscape:window-x="50"
     inkscape:window-y="50"
     inkscape:window-maximized="0" />
  <metadata
     id="metadata7">
    <rdf:RDF>
      <cc:Work
         rdf:about="">
        <dc:format>image/svg+xml</dc:format>
        <dc:type
           rdf:resource="http://purl.org/dc/dcmitype/StillImage" />
        <dc:title />
      </cc:Work>
    </rdf:RDF>
  </metadata>
  <g
     inkscape:label="Layer 1"
     inkscape:groupmode="layer"
     id="layer1">
    <rect
       style="fill:url(#radialGradient5237);fill-opacity:1;stroke:#bc6900;stroke-opacity:1;stroke-width:10;stroke-miterlimit:4;stroke-dasharray:none;stroke-dashoffset:0;stroke-linejoin:miter;stroke-linecap:butt;filter:url(#filter5567)"
       id="rect2985"
       width="194.28572"
       height="125.71429"
       x="100"
       y="295.21933" />
    <text
       xml:space="preserve"
       style="font-size:64px;font-style:normal;font-variant:normal;font-weight:normal;font-stretch:normal;text-align:start;line-height:200%;letter-spacing:0px;word-spacing:0px;writing-mode:lr-tb;text-anchor:start;fill:#110da2;fill-opacity:1;stroke:#787886;font-family:Comic Sans MS;-inkscape-font-specification:Comic Sans MS;stroke-opacity:1;stroke-width:1;stroke-miterlimit:4;stroke-dasharray:none"
       x="116.30952"
       y="375.75504"
       id="text5427"
       sodipodi:linespacing="200%"><tspan
         sodipodi:role="line"
         id="tspan5429"
         x="116.30952"
         y="375.75504">Done!</tspan></text>
    <path
       style="fill:#110da2;fill-opacity:1;stroke:#9c9c9c;stroke-width:0.2;stroke-miterlimit:4;stroke-opacity:1;stroke-dasharray:none"
       id="path5509"
       d="m 111.35697,393.54795 c 3.42382,-2.39117 6.99326,-4.46036 10.50401,-6.73407 2.21732,-1.43603 -8.94397,5.60448 -6.704,4.21094 9.95255,-6.19172 5.90951,-4.11071 10.55808,-6.43915 0.47082,-0.22477 0.9442,-0.44329 1.41249,-0.67429 1.47926,-0.72972 1.13292,-0.63457 2.62443,-1.24573 1.05169,-0.43094 2.1306,-0.73012 3.17931,-1.16769 1.38021,-0.50751 2.7807,-0.97556 4.22102,-1.2239 1.5527,-0.25324 3.12227,-0.32256 4.68961,-0.35836 1.64722,-0.045 3.23835,0.531 4.8317,0.91646 1.31375,0.48376 2.6067,1.04371 3.86141,1.68896 1.26904,0.45823 2.51231,0.88795 3.74129,1.47158 1.36435,0.49133 2.79124,0.66989 4.18871,1.01834 1.37714,0.18968 2.71617,0.54869 4.07913,0.82211 1.83189,0.1969 3.65187,0.47841 5.48112,0.71045 2.27853,0.2598 4.57098,0.30871 6.85978,0.34868 2.71384,0.0269 5.42782,0.038 8.14177,0.0389 2.54839,-0.01 5.09682,-0.0173 7.64515,-0.0402 1.86975,-0.007 3.73944,-0.0186 5.60921,-0.0128 1.98906,0.17078 3.91781,-0.27172 5.85449,-0.68151 1.98962,-0.64619 4.02682,-1.1287 5.99748,-1.8409 1.40896,-0.73835 2.89749,-1.25682 4.37649,-1.79366 1.13738,-0.43745 2.20284,-0.93478 3.41041,-1.12901 1.42528,-0.16602 2.86293,-0.13018 4.29408,-0.12155 1.99154,0.14388 3.94681,-0.0743 5.91554,-0.36104 1.5711,-0.26388 3.15856,-0.28563 4.74376,-0.31338 2.15419,-0.007 4.30829,0.0115 6.46252,0.004 1.90803,0.077 3.8324,-0.1693 5.72863,0.10093 1.52967,0.25919 2.99569,0.80183 4.52943,1.06038 1.39734,0.39184 2.7807,0.80535 4.14986,1.30347 1.68235,0.51093 3.35355,1.05695 5.0746,1.39326 1.42913,0.24885 2.87865,0.2731 4.32235,0.29157 1.45656,0.0525 2.8756,0.0308 4.30456,-0.27317 1.44001,-0.19186 2.86241,-0.33487 4.27998,-0.66803 0.82099,-0.16733 1.67307,-0.25962 2.43314,-0.67189 0.29985,-0.16264 0.55901,-0.40379 0.85187,-0.58093 -25.62022,16.00624 19.91897,-12.41885 -5.18484,3.32763 3.35856,-2.71495 6.98554,-4.69608 10.67808,-7.01518 -14.17898,8.5806 -8.57109,6.27482 -6.31023,3.49948 0,0 8.71051,-3.93178 8.71051,-3.93178 l 0,0 c -0.86298,0.81548 0.19713,-0.236 -0.61462,0.74377 -2.43775,2.94231 -5.32952,4.05926 -9.1263,6.11641 14.45043,-9.18011 8.03696,-5.62434 5.43246,-3.09533 -2.8454,1.78959 -5.68973,3.5812 -8.53619,5.36876 -8.7279,5.48105 25.01463,-15.99297 -2.38863,1.42033 -1.06931,0.58208 -2.24397,0.75217 -3.40944,0.98334 -1.42695,0.28175 -2.87942,0.34851 -4.30571,0.64218 -1.4552,0.20054 -2.92129,0.12861 -4.38502,0.11498 -1.47712,-0.0358 -2.95722,-0.10664 -4.40618,-0.45276 -1.72441,-0.41747 -3.423,-0.95323 -5.12061,-1.48346 -1.36581,-0.42227 -2.73105,-0.85335 -4.12062,-1.17416 -1.48659,-0.32815 -2.93296,-0.87554 -4.45061,-1.01395 -1.87142,-0.10131 -3.74733,-0.0482 -5.62044,-0.0728 -2.16827,-0.009 -4.33671,-0.003 -6.5044,0.0586 -1.56768,0.0519 -3.1319,0.16946 -4.68764,0.39302 -1.98674,0.24194 -3.9728,0.28376 -5.97142,0.26029 -1.42224,0.0286 -2.85965,0.0226 -4.25908,0.33666 -1.13102,0.31832 -2.18411,0.86827 -3.30855,1.21393 -1.45389,0.55971 -2.90546,1.11879 -4.34442,1.7224 -2.00298,0.60917 -4.00618,1.22642 -6.03255,1.73644 -1.98065,0.41649 -3.96854,0.65351 -5.99026,0.5505 -1.85933,0.006 -3.7186,-0.005 -5.57793,-0.0116 -2.5182,-0.0213 -5.03652,-0.0253 -7.55479,-0.0312 -2.73619,0.004 -5.47251,0.0293 -8.20861,-0.006 -2.31957,-0.0401 -4.63904,-0.12856 -6.94649,-0.40905 -1.86453,-0.25068 -3.73919,-0.40089 -5.59491,-0.71278 -1.36457,-0.3025 -2.73387,-0.54825 -4.09876,-0.84611 -1.43902,-0.35207 -2.92286,-0.53121 -4.29038,-1.17144 -1.23115,-0.57542 -2.54068,-0.86388 -3.75935,-1.47507 -1.22241,-0.56519 -2.42377,-1.19369 -3.71523,-1.55594 -1.55174,-0.40153 -3.11268,-0.81801 -4.72274,-0.68606 -1.53172,0.053 -3.06833,0.14317 -4.57341,0.48092 -1.38902,0.36649 -2.76669,0.79687 -4.11506,1.31489 -2.41174,0.83748 -4.76131,1.82463 -7.027,3.06752 -0.45651,0.25094 -1.80765,1.04014 -1.36953,0.75281 2.15719,-1.41468 8.70594,-5.51613 6.52961,-4.1368 -29.572811,18.74289 5.2673,-3.55186 -3.57558,2.42475 0,0 -8.79654,3.70327 -8.79654,3.70327 z"
       inkscape:connector-curvature="0" />
  </g>
</svg>
